<svg width="49" height="50" viewBox="0 0 49 50" fill="none" xmlns="http://www.w3.org/2000/svg">
<path d="M30.8637 8.86743L32.622 9.53807L45.8857 14.7541C47.5995 15.4248 48.7173 17.1386 48.7173 19.0015V29.1356C48.7173 30.3278 48.2702 31.5201 47.376 32.3398L30.9081 48.8822C30.2375 49.5528 29.2688 49.9999 28.2256 49.9999H16.063L16.3183 49.5455L28.6727 37.3323L28.591 37.2727L42.2344 23.7705L28.8962 18.4799L30.8637 8.86743Z" fill="white"/>
<path d="M32.8456 0H20.7742C19.8055 0 18.8368 0.372577 18.0916 1.11773L1.62375 17.5856C0.804078 18.4053 0.282471 19.5975 0.282471 20.7898V30.9239C0.282471 32.7867 1.4002 34.4261 3.11405 35.1712L16.4523 40.4618L18.0171 41.0579L20.029 31.4455L6.76529 26.2294L32.8456 0Z" fill="white"/>
<path d="M42.2272 23.7668L28.9225 18.4604L32.7875 0L6.77271 26.2332L20.0031 31.5396L16.0637 50L42.2272 23.7668Z" fill="#D183FF"/>
</svg>
